<mxfile modified="2019-12-12T07:43:40.939Z" host="www.draw.io" agent="Mozilla/5.0 (Windows NT 6.1; Win64; x64) AppleWebKit/537.36 (KHTML, like Gecko) Chrome/79.0.3945.79 Safari/537.36" etag="1skJspI30e9-e0typGxH" version="12.3.9" type="github" pages="1">
  <diagram id="amoyftugODo5AHzdy8AN" name="Shiro认证流程">
    <mxGraphModel dx="1408" dy="780" grid="1" gridSize="10" guides="1" tooltips="1" connect="1" arrows="1" fold="1" page="1" pageScale="1" pageWidth="827" pageHeight="1169" math="0" shadow="0">
      <root>
        <mxCell id="0"/>
        <mxCell id="1" parent="0"/>
        <mxCell id="xLJ6pVYqw2cuuEQA37DQ-89" value="" style="rounded=1;whiteSpace=wrap;html=1;fontSize=16;fontColor=#000000;align=center;" parent="1" vertex="1">
          <mxGeometry x="780" y="370" width="650" height="250" as="geometry"/>
        </mxCell>
        <mxCell id="xLJ6pVYqw2cuuEQA37DQ-85" value="" style="rounded=1;whiteSpace=wrap;html=1;fontSize=16;fontColor=#000000;align=center;" parent="1" vertex="1">
          <mxGeometry x="750" y="675" width="700" height="390" as="geometry"/>
        </mxCell>
        <mxCell id="xLJ6pVYqw2cuuEQA37DQ-15" value="Shiro权限管理管家" style="rounded=1;whiteSpace=wrap;html=1;fontSize=14;fillColor=#008a00;strokeColor=#005700;fontColor=#ffffff;" parent="1" vertex="1">
          <mxGeometry x="380" y="55" width="425" height="85" as="geometry"/>
        </mxCell>
        <mxCell id="xLJ6pVYqw2cuuEQA37DQ-32" value="" style="endArrow=none;dashed=1;html=1;fontSize=14;fontColor=#FF3333;fillColor=#d80073;strokeColor=#A50040;" parent="1" edge="1">
          <mxGeometry width="50" height="50" relative="1" as="geometry">
            <mxPoint x="20" y="310" as="sourcePoint"/>
            <mxPoint x="800" y="310" as="targetPoint"/>
          </mxGeometry>
        </mxCell>
        <mxCell id="xLJ6pVYqw2cuuEQA37DQ-58" value="过滤器" style="text;html=1;resizable=0;points=[];align=center;verticalAlign=middle;labelBackgroundColor=#ffffff;fontSize=16;fontColor=#000000;fontStyle=1" parent="xLJ6pVYqw2cuuEQA37DQ-32" vertex="1" connectable="0">
          <mxGeometry x="-0.4211" y="2" relative="1" as="geometry">
            <mxPoint as="offset"/>
          </mxGeometry>
        </mxCell>
        <mxCell id="xLJ6pVYqw2cuuEQA37DQ-47" value="" style="edgeStyle=orthogonalEdgeStyle;rounded=0;orthogonalLoop=1;jettySize=auto;html=1;fontSize=14;fontColor=#FF3333;" parent="1" edge="1">
          <mxGeometry relative="1" as="geometry">
            <mxPoint x="350" y="260" as="sourcePoint"/>
            <mxPoint x="350" y="380" as="targetPoint"/>
          </mxGeometry>
        </mxCell>
        <mxCell id="xLJ6pVYqw2cuuEQA37DQ-67" value="" style="edgeStyle=orthogonalEdgeStyle;rounded=0;orthogonalLoop=1;jettySize=auto;html=1;fontSize=16;fontColor=#000000;" parent="1" source="xLJ6pVYqw2cuuEQA37DQ-38" edge="1">
          <mxGeometry relative="1" as="geometry">
            <mxPoint x="934.5" y="445" as="targetPoint"/>
          </mxGeometry>
        </mxCell>
        <mxCell id="xLJ6pVYqw2cuuEQA37DQ-38" value="&lt;font&gt;&lt;b style=&quot;font-size: 16px&quot;&gt;@Configuration配置Shiro核心类&lt;/b&gt;&lt;br&gt;&lt;div style=&quot;text-align: left&quot;&gt;&lt;br&gt;&lt;/div&gt;&lt;div style=&quot;text-align: left&quot;&gt;&lt;div&gt;&lt;span&gt;&lt;b&gt;1.定义可以访问的url&lt;/b&gt;&lt;/span&gt;&lt;/div&gt;&lt;div&gt;&lt;span&gt;&lt;b&gt;2.定义可以访问的角色&lt;/b&gt;&lt;/span&gt;&lt;/div&gt;&lt;div&gt;&lt;span&gt;&lt;b&gt;3.定义放行的url&lt;/b&gt;&lt;/span&gt;&lt;/div&gt;&lt;div&gt;&lt;span&gt;&lt;b&gt;4.过滤无权限的url&lt;/b&gt;&lt;/span&gt;&lt;/div&gt;&lt;br&gt;&lt;br&gt;&lt;/div&gt;&lt;/font&gt;" style="rounded=1;whiteSpace=wrap;html=1;fontSize=14;fontColor=#FF3333;verticalAlign=top;" parent="1" vertex="1">
          <mxGeometry x="810" y="227" width="249" height="130" as="geometry"/>
        </mxCell>
        <mxCell id="xLJ6pVYqw2cuuEQA37DQ-48" value="OK" style="text;html=1;resizable=0;points=[];autosize=1;align=left;verticalAlign=top;spacingTop=-4;fontSize=16;fontColor=#000000;fontStyle=1" parent="1" vertex="1">
          <mxGeometry x="390" y="320" width="40" height="20" as="geometry"/>
        </mxCell>
        <mxCell id="xLJ6pVYqw2cuuEQA37DQ-56" value="" style="group" parent="1" vertex="1" connectable="0">
          <mxGeometry x="430" y="185" width="110" height="42" as="geometry"/>
        </mxCell>
        <mxCell id="xLJ6pVYqw2cuuEQA37DQ-54" value="Actor" style="shape=umlActor;verticalLabelPosition=bottom;labelBackgroundColor=#ffffff;verticalAlign=top;html=1;fontSize=16;fontColor=#000000;" parent="xLJ6pVYqw2cuuEQA37DQ-56" vertex="1">
          <mxGeometry width="20" height="40" as="geometry"/>
        </mxCell>
        <mxCell id="xLJ6pVYqw2cuuEQA37DQ-55" value="username&#xa;password&#xa;" style="text;align=center;fontStyle=1;verticalAlign=middle;spacingLeft=3;spacingRight=3;strokeColor=none;rotatable=0;points=[[0,0.5],[1,0.5]];portConstraint=eastwest;fontSize=16;fontColor=#000000;" parent="xLJ6pVYqw2cuuEQA37DQ-56" vertex="1">
          <mxGeometry x="30" y="16" width="80" height="26" as="geometry"/>
        </mxCell>
        <mxCell id="xLJ6pVYqw2cuuEQA37DQ-57" value="1.访问对象" style="rounded=1;whiteSpace=wrap;html=1;fontSize=16;fillColor=#ffe6cc;strokeColor=#d79b00;" parent="1" vertex="1">
          <mxGeometry x="293" y="180" width="120" height="60" as="geometry"/>
        </mxCell>
        <mxCell id="xLJ6pVYqw2cuuEQA37DQ-65" value="过滤器" style="text;html=1;resizable=0;points=[];autosize=1;align=left;verticalAlign=top;spacingTop=-4;fontSize=16;fontColor=#000000;fontStyle=1" parent="1" vertex="1">
          <mxGeometry x="425" y="298" width="60" height="20" as="geometry"/>
        </mxCell>
        <mxCell id="xLJ6pVYqw2cuuEQA37DQ-71" value="" style="edgeStyle=orthogonalEdgeStyle;rounded=0;orthogonalLoop=1;jettySize=auto;html=1;fontSize=16;fontColor=#000000;" parent="1" source="xLJ6pVYqw2cuuEQA37DQ-69" target="xLJ6pVYqw2cuuEQA37DQ-70" edge="1">
          <mxGeometry relative="1" as="geometry"/>
        </mxCell>
        <mxCell id="xLJ6pVYqw2cuuEQA37DQ-69" value="1.&lt;span&gt;Subject &lt;/span&gt;&lt;span&gt;subject &lt;/span&gt;&lt;span&gt;= &lt;/span&gt;&lt;span&gt;SecurityUtils&lt;/span&gt;&lt;span&gt;.getSubject&lt;/span&gt;&lt;span&gt;()&amp;nbsp; &amp;nbsp;&amp;nbsp;&lt;/span&gt;&lt;span&gt;得到用户主体&lt;/span&gt;&lt;br&gt;&lt;div&gt;2.&lt;span&gt;UsernamePasswordToken &lt;/span&gt;&lt;span&gt;token &lt;/span&gt;&lt;span&gt;= new &lt;/span&gt;&lt;span&gt;UsernamePasswordToken&lt;/span&gt;&lt;span&gt;(&lt;/span&gt;&lt;span&gt;name&lt;/span&gt;&lt;span&gt;, &lt;/span&gt;&lt;span&gt;password&lt;/span&gt;&lt;span&gt;) 封装数据&lt;/span&gt;&lt;/div&gt;&lt;div&gt;3.subject.login(token)&lt;/div&gt;" style="rounded=1;whiteSpace=wrap;html=1;fontSize=16;fontColor=#000000;align=left;fontStyle=1" parent="1" vertex="1">
          <mxGeometry x="8" y="390" width="690" height="90" as="geometry"/>
        </mxCell>
        <mxCell id="xLJ6pVYqw2cuuEQA37DQ-73" value="" style="edgeStyle=orthogonalEdgeStyle;rounded=0;orthogonalLoop=1;jettySize=auto;html=1;fontSize=16;fontColor=#000000;" parent="1" source="xLJ6pVYqw2cuuEQA37DQ-70" target="xLJ6pVYqw2cuuEQA37DQ-72" edge="1">
          <mxGeometry relative="1" as="geometry"/>
        </mxCell>
        <mxCell id="xLJ6pVYqw2cuuEQA37DQ-70" value="1.&lt;span&gt;Subject &lt;/span&gt;&lt;span&gt;subject &lt;/span&gt;&lt;span&gt;= &lt;/span&gt;&lt;span&gt;SecurityUtils&lt;/span&gt;&lt;span&gt;.getSubject&lt;/span&gt;&lt;span&gt;()&amp;nbsp; &amp;nbsp;&amp;nbsp;&lt;/span&gt;&lt;span&gt;得到用户主体&lt;/span&gt;&lt;br&gt;&lt;div&gt;2.&lt;span&gt;UsernamePasswordToken &lt;/span&gt;&lt;span&gt;token &lt;/span&gt;&lt;span&gt;= new &lt;/span&gt;&lt;span&gt;UsernamePasswordToken&lt;/span&gt;&lt;span&gt;(&lt;/span&gt;&lt;span&gt;name&lt;/span&gt;&lt;span&gt;, &lt;/span&gt;&lt;span&gt;password&lt;/span&gt;&lt;span&gt;) 封装用户数据&lt;/span&gt;&lt;/div&gt;&lt;div&gt;&lt;br&gt;&lt;/div&gt;" style="rounded=1;whiteSpace=wrap;html=1;fontSize=16;fontColor=#000000;align=left;fontStyle=1" parent="1" vertex="1">
          <mxGeometry x="45" y="585" width="725" height="90" as="geometry"/>
        </mxCell>
        <mxCell id="xLJ6pVYqw2cuuEQA37DQ-78" value="" style="edgeStyle=orthogonalEdgeStyle;rounded=0;orthogonalLoop=1;jettySize=auto;html=1;fontSize=16;fontColor=#000000;" parent="1" source="xLJ6pVYqw2cuuEQA37DQ-72" target="xLJ6pVYqw2cuuEQA37DQ-77" edge="1">
          <mxGeometry relative="1" as="geometry"/>
        </mxCell>
        <mxCell id="xLJ6pVYqw2cuuEQA37DQ-83" value="" style="edgeStyle=orthogonalEdgeStyle;rounded=0;orthogonalLoop=1;jettySize=auto;html=1;fontSize=16;fontColor=#000000;" parent="1" source="xLJ6pVYqw2cuuEQA37DQ-72" target="xLJ6pVYqw2cuuEQA37DQ-82" edge="1">
          <mxGeometry relative="1" as="geometry"/>
        </mxCell>
        <mxCell id="xLJ6pVYqw2cuuEQA37DQ-72" value="3..subject.login(token)" style="rounded=1;whiteSpace=wrap;html=1;fontSize=16;fontColor=#000000;align=left;fontStyle=1" parent="1" vertex="1">
          <mxGeometry x="45" y="755" width="240" height="90" as="geometry"/>
        </mxCell>
        <mxCell id="xLJ6pVYqw2cuuEQA37DQ-82" value="4.通过&lt;span&gt;thymeleaf-extras-shiroAPI可以通过查询数据库获得角色权限动态控制用户访问页面的url权限&lt;/span&gt;" style="rounded=1;whiteSpace=wrap;html=1;fontSize=16;fontColor=#ffffff;align=left;fontStyle=1;fillColor=#a20025;strokeColor=#6F0000;" parent="1" vertex="1">
          <mxGeometry x="12.5" y="1000" width="305" height="90" as="geometry"/>
        </mxCell>
        <mxCell id="xLJ6pVYqw2cuuEQA37DQ-81" value="" style="edgeStyle=orthogonalEdgeStyle;rounded=0;orthogonalLoop=1;jettySize=auto;html=1;fontSize=16;fontColor=#000000;" parent="1" source="xLJ6pVYqw2cuuEQA37DQ-77" target="xLJ6pVYqw2cuuEQA37DQ-80" edge="1">
          <mxGeometry relative="1" as="geometry"/>
        </mxCell>
        <mxCell id="xLJ6pVYqw2cuuEQA37DQ-77" value="1.认证方法&lt;span&gt;&lt;font color=&quot;#ff3333&quot;&gt;doGetAuthenticationInfo()&lt;/font&gt;&lt;/span&gt;&lt;span&gt;会通过查询数据库判断用户名与密码是否正确&lt;br&gt;&lt;/span&gt;2.返回带有用户与用户密码信息的认证对象SimpleAuthenticationInfo&lt;br&gt;" style="rounded=1;whiteSpace=wrap;html=1;fontSize=16;fontColor=#000000;align=left;" parent="1" vertex="1">
          <mxGeometry x="780" y="755" width="590" height="90" as="geometry"/>
        </mxCell>
        <mxCell id="xLJ6pVYqw2cuuEQA37DQ-80" value="1.授权方法&lt;span&gt;doGetAuthorizationInfo()通过认证对象查询数据库获得用户的权限&lt;br&gt;2.授权对象添加从查询数据库查询出来的所有权限&lt;br&gt;&lt;/span&gt;" style="rounded=1;whiteSpace=wrap;html=1;fontSize=16;fontColor=#000000;align=left;" parent="1" vertex="1">
          <mxGeometry x="780" y="925" width="590" height="90" as="geometry"/>
        </mxCell>
        <mxCell id="xLJ6pVYqw2cuuEQA37DQ-79" value="login(token)调用UserRealm类中的认证与授权方法" style="text;html=1;resizable=0;points=[];autosize=1;align=left;verticalAlign=top;spacingTop=-4;fontSize=16;fontColor=#000000;fontStyle=1" parent="1" vertex="1">
          <mxGeometry x="380" y="770" width="370" height="20" as="geometry"/>
        </mxCell>
        <mxCell id="xLJ6pVYqw2cuuEQA37DQ-84" value="&lt;b&gt;登录成功&lt;/b&gt;" style="text;html=1;resizable=0;points=[];autosize=1;align=center;verticalAlign=top;spacingTop=-4;fontSize=16;fontColor=#ffffff;fillColor=#008a00;strokeColor=#005700;" parent="1" vertex="1">
          <mxGeometry x="179" y="902" width="80" height="20" as="geometry"/>
        </mxCell>
        <mxCell id="xLJ6pVYqw2cuuEQA37DQ-86" value="UserRealm 继承于&lt;span&gt;AuthorizingRealm&lt;/span&gt;" style="rounded=1;whiteSpace=wrap;html=1;fontSize=16;fontColor=#ffffff;align=center;fontStyle=1;fillColor=#1ba1e2;strokeColor=#006EAF;" parent="1" vertex="1">
          <mxGeometry x="960" y="680" width="310" height="60" as="geometry"/>
        </mxCell>
        <mxCell id="xLJ6pVYqw2cuuEQA37DQ-87" value="" style="endArrow=classic;html=1;fontSize=16;fontColor=#000000;exitX=0;exitY=0.5;exitDx=0;exitDy=0;" parent="1" source="xLJ6pVYqw2cuuEQA37DQ-88" edge="1">
          <mxGeometry width="50" height="50" relative="1" as="geometry">
            <mxPoint x="1270" y="590" as="sourcePoint"/>
            <mxPoint x="1220.5" y="675" as="targetPoint"/>
          </mxGeometry>
        </mxCell>
        <mxCell id="xLJ6pVYqw2cuuEQA37DQ-88" value="Shiro认证与授权的核心类" style="rounded=1;whiteSpace=wrap;html=1;fontSize=16;fontColor=#ffffff;align=center;fillColor=#60a917;strokeColor=#2D7600;" parent="1" vertex="1">
          <mxGeometry x="1410" y="620" width="120" height="60" as="geometry"/>
        </mxCell>
        <mxCell id="xLJ6pVYqw2cuuEQA37DQ-93" value="" style="edgeStyle=orthogonalEdgeStyle;rounded=0;orthogonalLoop=1;jettySize=auto;html=1;fontSize=16;fontColor=#000000;" parent="1" source="xLJ6pVYqw2cuuEQA37DQ-90" target="xLJ6pVYqw2cuuEQA37DQ-92" edge="1">
          <mxGeometry relative="1" as="geometry"/>
        </mxCell>
        <mxCell id="xLJ6pVYqw2cuuEQA37DQ-90" value="UserRealm" style="rounded=1;whiteSpace=wrap;html=1;fontSize=16;fontColor=#ffffff;align=center;fillColor=#1ba1e2;strokeColor=#006EAF;arcSize=44;" parent="1" vertex="1">
          <mxGeometry x="844.5" y="565" width="180" height="40" as="geometry"/>
        </mxCell>
        <mxCell id="xLJ6pVYqw2cuuEQA37DQ-95" value="" style="edgeStyle=orthogonalEdgeStyle;rounded=0;orthogonalLoop=1;jettySize=auto;html=1;fontSize=16;fontColor=#000000;" parent="1" source="xLJ6pVYqw2cuuEQA37DQ-92" target="xLJ6pVYqw2cuuEQA37DQ-94" edge="1">
          <mxGeometry relative="1" as="geometry"/>
        </mxCell>
        <mxCell id="xLJ6pVYqw2cuuEQA37DQ-92" value="SecurityManager" style="rounded=1;whiteSpace=wrap;html=1;fontSize=16;fontColor=#ffffff;align=center;fillColor=#1ba1e2;strokeColor=#006EAF;arcSize=44;" parent="1" vertex="1">
          <mxGeometry x="844.5" y="510" width="180" height="40" as="geometry"/>
        </mxCell>
        <mxCell id="xLJ6pVYqw2cuuEQA37DQ-94" value="ShiroFilterFactoryBean" style="rounded=1;whiteSpace=wrap;html=1;fontSize=16;fontColor=#ffffff;align=center;fillColor=#1ba1e2;strokeColor=#006EAF;arcSize=44;" parent="1" vertex="1">
          <mxGeometry x="844.5" y="445" width="180" height="40" as="geometry"/>
        </mxCell>
        <mxCell id="xLJ6pVYqw2cuuEQA37DQ-91" value="Shiro中主要过滤角色与访问url控制的核心类" style="rounded=1;whiteSpace=wrap;html=1;fontSize=16;fontColor=#ffffff;align=center;fillColor=#008a00;strokeColor=#005700;" parent="1" vertex="1">
          <mxGeometry x="1145" y="420" width="195" height="70" as="geometry"/>
        </mxCell>
        <mxCell id="xLJ6pVYqw2cuuEQA37DQ-101" value="" style="endArrow=classic;html=1;fontSize=16;fontColor=#000000;" parent="1" edge="1">
          <mxGeometry width="50" height="50" relative="1" as="geometry">
            <mxPoint x="1144.5" y="459" as="sourcePoint"/>
            <mxPoint x="1024.5" y="471" as="targetPoint"/>
          </mxGeometry>
        </mxCell>
      </root>
    </mxGraphModel>
  </diagram>
</mxfile>
